# xmcd
#
# Track frame offsets: 
#        150
#        12837
#        26140
#        38355
#        51545
#        60847
#        71180
#        81325
#        94400
#        105802
#        120450
#        130742
#        142620
#        152502
#        163197
#        175602
#        186709
#        198082
#        210655
#        219140
#        228145
#        240512
#        250780
#        261617
#        271952
#        282885
#        294412
#        306290
#        318005
#        328997
#
# Disc length: 4519 seconds
#
# Revision: 0
# Processed by: cddbd v1.5.2PL0 Copyright (c) Steve Scherf et al.
# Submitted via: ExactAudioCopy v1.0b1
#
DISCID=a111a51e
DTITLE=Various Artist - The Complete D Singles - Volume 6 [CD2)
DYEAR=2002
DGENRE=Country
TTITLE0=Jan Eden - The Only Thing Between You Two (Is Me) - 1969
TTITLE1=Jan Eden - When You Need A Shoulder - 1969
TTITLE2=Brenda Carter - Slice Of Life - 1969
TTITLE3=Brenda Carter - The Ways Of A Man - 1969
TTITLE4=Brenda Carter - Life Of Riley's - 2005
TTITLE5=Brenda Carter - Shadow From Her Eyes - 2005
TTITLE6=Denny Myrick - From Table To Table - 1970
TTITLE7=Denny Myrick - Sometimes You Just Can't Win - 1970
TTITLE8=Bill and Betty Price - I Want You - 1970
TTITLE9=Bill and Betty Price - Remember Me - 1970
TTITLE10=Bobby Lee - God Made An Angel - 1970
TTITLE11=Bobby Lee - This Is The One - 1970
TTITLE12=Jan Eden - Your Lies - 1971
TTITLE13=Jan Eden - Happy To Be With You - 1971
TTITLE14=Brenda Carter - The End Of Every Woman Is Man - 1971
TTITLE15=Brenda Carter - I Can Read Your Mind - 1971
TTITLE16=Brenda Carter - Miss Nosey Brown - 2005
TTITLE17=Hoyt Skidmore - Heaven At Home - 1971
TTITLE18=Hoyt Skidmore - Windows Of Your Mind - 1971
TTITLE19=Rusty Adams - Two Lives To Live - 1971
TTITLE20=Rusty Adams - Drive Me By There One More Time - 1971
TTITLE21=Gene Bardell - Jacksonville - 1971
TTITLE22=Gene Bardell - Let Me Down All The Way - 1971
TTITLE23=Helen Hall - Mistaken Marriage - 1971
TTITLE24=Helen Hall - Something Special - 1971
TTITLE25=Eddie Noack - Raise The Taxes - 1971
TTITLE26=Eddie Noack - We'll Be On Our Honeymoon - 1971
TTITLE27=Eddie Noack - Guide Books For Husbands - 2005
TTITLE28=Eddie Noack - For Better Or Worse - 2005
TTITLE29=Eddie Noack - No Blues Is Good News - 2005
EXTD=
EXTT0=
EXTT1=
EXTT2=
EXTT3=
EXTT4=
EXTT5=
EXTT6=
EXTT7=
EXTT8=
EXTT9=
EXTT10=
EXTT11=
EXTT12=
EXTT13=
EXTT14=
EXTT15=
EXTT16=
EXTT17=
EXTT18=
EXTT19=
EXTT20=
EXTT21=
EXTT22=
EXTT23=
EXTT24=
EXTT25=
EXTT26=
EXTT27=
EXTT28=
EXTT29=
PLAYORDER=
